<?xml version="1.0" standalone="no"?>
<!DOCTYPE svg PUBLIC "-//W3C//DTD SVG 20010904//EN"
 "http://www.w3.org/TR/2001/REC-SVG-20010904/DTD/svg10.dtd">
<svg version="1.0" xmlns="http://www.w3.org/2000/svg"
 width="32.000000pt" height="32.000000pt" viewBox="0 0 32.000000 32.000000"
 preserveAspectRatio="xMidYMid meet">

<g transform="translate(0.000000,32.000000) scale(0.100000,-0.100000)"
fill="#000000" stroke="none">
<path d="M57 290 c-46 -40 -60 -78 -55 -146 8 -90 45 -113 107 -65 22 17 23
19 7 49 -28 54 -16 81 36 82 9 0 5 -51 -6 -68 -4 -7 -2 -12 3 -12 6 0 17 -15
25 -34 12 -28 18 -33 36 -29 12 3 24 12 27 20 4 11 15 13 38 9 28 -6 33 -3 39
16 18 69 -12 152 -66 186 -26 16 -51 22 -96 22 -54 0 -66 -4 -95 -30z m143
-153 c0 -20 0 -20 -15 -1 -19 25 -19 35 0 28 8 -4 15 -16 15 -27z"/>
</g>
</svg>
